<?xml version="1.0" encoding="UTF-8" standalone="no"?>
<!DOCTYPE svg PUBLIC "-//W3C//DTD SVG 1.1//EN" "http://www.w3.org/Graphics/SVG/1.1/DTD/svg11.dtd">
<svg width="100%" height="100%" viewBox="0 0 64 64" version="1.1" xmlns="http://www.w3.org/2000/svg" xmlns:xlink="http://www.w3.org/1999/xlink" xml:space="preserve" xmlns:serif="http://www.serif.com/" style="fill-rule:evenodd;clip-rule:evenodd;stroke-linejoin:round;stroke-miterlimit:2;">
    <g>
        <path d="M39.104,4.246L15.05,4.246C12.996,4.246 11.329,5.913 11.329,7.967L11.329,56.033C11.329,58.087 12.996,59.754 15.05,59.754L48.95,59.754C51.004,59.754 52.671,58.087 52.671,56.033L52.671,17.813L39.104,4.246Z" style="fill:rgb(8,59,181);"/>
        <path d="M52.671,17.813L39.104,4.246L39.104,14.092C39.104,16.146 40.771,17.813 42.825,17.813L52.671,17.813Z" style="fill:rgb(48,106,246);"/>
    </g>
    <path d="M45.259,47.413C45.259,46.448 44.475,45.663 43.509,45.663L20.491,45.663C19.525,45.663 18.741,46.448 18.741,47.413C18.741,48.379 19.525,49.163 20.491,49.163L43.509,49.163C44.475,49.163 45.259,48.379 45.259,47.413Z" style="fill:rgb(243,244,246);"/>
    <path d="M45.259,39.413C45.259,38.448 44.475,37.663 43.509,37.663L20.491,37.663C19.525,37.663 18.741,38.448 18.741,39.413C18.741,40.379 19.525,41.163 20.491,41.163L43.509,41.163C44.475,41.163 45.259,40.379 45.259,39.413Z" style="fill:rgb(243,244,246);"/>
    <path d="M45.259,30.413C45.259,29.448 44.475,28.663 43.509,28.663L20.491,28.663C19.525,28.663 18.741,29.448 18.741,30.413C18.741,31.379 19.525,32.163 20.491,32.163L43.509,32.163C44.475,32.163 45.259,31.379 45.259,30.413Z" style="fill:rgb(243,244,246);"/>
    <path d="M39.173,44.53L38.291,44.53C37.063,44.53 36.065,45.448 36.065,46.578L36.065,59.546C36.065,60.676 37.063,61.593 38.291,61.593L58.668,61.593C59.897,61.593 60.894,60.676 60.894,59.546L60.894,46.578C60.894,45.448 59.897,44.53 58.668,44.53L57.859,44.53L57.859,40.593C57.859,38.314 56.875,36.128 55.123,34.517C53.372,32.905 50.996,32 48.518,32C48.517,32 48.515,32 48.513,32C46.036,32 43.66,32.905 41.909,34.517C40.157,36.128 39.173,38.314 39.173,40.593L39.173,44.53ZM46.889,53.604C46.017,53.111 45.434,52.225 45.434,51.215C45.434,49.668 46.799,48.413 48.48,48.413C50.161,48.413 51.526,49.668 51.526,51.215C51.526,52.225 50.943,53.111 50.07,53.604L50.54,57.164C50.565,57.349 50.502,57.534 50.368,57.674C50.234,57.813 50.041,57.893 49.839,57.893C49.064,57.893 47.895,57.893 47.121,57.893C46.919,57.893 46.726,57.813 46.592,57.674C46.458,57.534 46.395,57.349 46.419,57.164L46.889,53.604ZM54.4,44.53L54.4,40.718C54.4,39.276 53.778,37.893 52.669,36.874C51.561,35.854 50.058,35.281 48.49,35.281C48.49,35.281 48.49,35.281 48.49,35.281C46.923,35.281 45.42,35.854 44.311,36.874C43.203,37.893 42.58,39.276 42.58,40.718L42.58,44.53L54.4,44.53Z" style="fill:rgb(255,200,50);"/>
</svg>
