<?xml version="1.0" encoding="UTF-8" standalone="no"?>
<!DOCTYPE svg PUBLIC "-//W3C//DTD SVG 1.1//EN" "http://www.w3.org/Graphics/SVG/1.1/DTD/svg11.dtd">
<svg width="100%" height="100%" viewBox="0 0 594 93" version="1.1" xmlns="http://www.w3.org/2000/svg" xmlns:xlink="http://www.w3.org/1999/xlink" xml:space="preserve" xmlns:serif="http://www.serif.com/" style="fill-rule:evenodd;clip-rule:evenodd;stroke-linejoin:round;stroke-miterlimit:2;">
    <g transform="matrix(1,0,0,1,-7,0)">
        <g id="title" transform="matrix(1,0,0,1,4,51.6381)">
            <g transform="matrix(1.06137,0,0,1.03529,-33.2708,-56.2218)">
                <path d="M591,13.8C591,10.047 588.028,7 584.367,7L43.633,7C39.972,7 37,10.047 37,13.8L37,85.2C37,88.953 39.972,92 43.633,92L584.367,92C588.028,92 591,88.953 591,85.2L591,13.8Z" style="fill:rgb(27,27,27);"/>
            </g>
            <path d="M114.406,-28.975C115.739,-28.975 117.006,-28.841 118.206,-28.575C119.406,-28.308 120.406,-27.975 121.206,-27.575L121.206,-8.475C118.472,-9.608 115.539,-10.175 112.406,-10.175C108.206,-10.175 104.972,-9.075 102.706,-6.875C100.439,-4.675 99.306,-1.408 99.306,2.925L99.306,11.625L108.306,11.625L108.306,28.025L71.906,28.025L71.906,11.625L76.306,11.625L76.306,-11.175L71.906,-11.175L71.906,-27.575L99.306,-27.575L99.306,-20.275C101.172,-23.075 103.306,-25.225 105.706,-26.725C108.106,-28.225 111.006,-28.975 114.406,-28.975Z" style="fill:white;fill-rule:nonzero;"/>
            <path d="M151.206,29.425C142.806,29.425 134.706,28.092 126.906,25.425L126.906,10.625L143.106,10.625L143.106,11.625C143.106,14.825 145.139,16.425 149.206,16.425C152.806,16.425 154.606,15.192 154.606,12.725C154.606,11.392 154.089,10.392 153.056,9.725C152.022,9.059 150.206,8.492 147.606,8.025L142.606,7.125C132.139,5.259 126.906,-0.675 126.906,-10.675C126.906,-16.475 129.106,-20.975 133.506,-24.175C137.906,-27.375 143.839,-28.975 151.306,-28.975C159.639,-28.975 166.672,-27.575 172.406,-24.775L172.406,-10.875L157.206,-10.875L157.206,-11.875C157.206,-13.208 156.756,-14.225 155.856,-14.925C154.956,-15.625 153.639,-15.975 151.906,-15.975C148.572,-15.975 146.906,-14.908 146.906,-12.775C146.906,-11.641 147.372,-10.775 148.306,-10.175C149.239,-9.575 150.939,-9.008 153.406,-8.475L159.106,-7.375C165.039,-6.241 169.272,-4.141 171.806,-1.075C174.339,1.992 175.606,5.925 175.606,10.725C175.606,16.792 173.489,21.425 169.256,24.625C165.022,27.825 159.006,29.425 151.206,29.425Z" style="fill:rgb(255,200,50);fill-rule:nonzero;"/>
            <path d="M208.606,29.425C199.139,29.425 191.739,26.942 186.406,21.975C181.072,17.009 178.406,9.759 178.406,0.225C178.406,-9.308 181.072,-16.558 186.406,-21.525C191.739,-26.491 199.139,-28.975 208.606,-28.975C218.006,-28.975 224.789,-26.525 228.956,-21.625C233.122,-16.725 235.206,-10.641 235.206,-3.375L235.206,3.825L202.806,3.825L202.806,4.425C202.806,6.892 203.539,8.709 205.006,9.875C206.472,11.042 208.906,11.625 212.306,11.625C216.372,11.625 220.239,11.325 223.906,10.725C227.572,10.125 230.772,9.359 233.506,8.425L233.506,24.425C231.172,25.692 227.756,26.842 223.256,27.875C218.756,28.909 213.872,29.425 208.606,29.425ZM214.406,-7.175L214.406,-8.375C214.406,-10.641 213.922,-12.275 212.956,-13.275C211.989,-14.275 210.539,-14.775 208.606,-14.775C206.672,-14.775 205.222,-14.258 204.256,-13.225C203.289,-12.191 202.806,-10.575 202.806,-8.375L202.806,-7.175L214.406,-7.175Z" style="fill:rgb(255,200,50);fill-rule:nonzero;"/>
            <path d="M268.106,29.425C258.572,29.425 251.139,26.942 245.806,21.975C240.472,17.009 237.806,9.759 237.806,0.225C237.806,-9.308 240.472,-16.558 245.806,-21.525C251.139,-26.491 258.539,-28.975 268.006,-28.975C272.606,-28.975 277.006,-28.341 281.206,-27.075C285.406,-25.808 288.672,-24.375 291.006,-22.775L291.006,-2.975L273.806,-2.975L273.806,-4.775C273.806,-6.975 273.339,-8.591 272.406,-9.625C271.472,-10.658 270.006,-11.175 268.006,-11.175C264.139,-11.175 262.206,-9.041 262.206,-4.775L262.206,3.825C262.206,9.025 265.172,11.625 271.106,11.625C276.639,11.625 283.072,11.025 290.406,9.825L290.406,25.525C288.139,26.525 284.956,27.425 280.856,28.225C276.756,29.025 272.506,29.425 268.106,29.425Z" style="fill:rgb(255,200,50);fill-rule:nonzero;"/>
            <path d="M363.306,11.625L363.306,28.025L331.706,28.025L331.706,11.625L335.906,11.625L335.906,-4.775C335.906,-6.975 335.439,-8.591 334.506,-9.625C333.572,-10.658 332.172,-11.175 330.306,-11.175C326.306,-11.175 324.306,-9.041 324.306,-4.775L324.306,11.625L328.506,11.625L328.506,28.025L296.906,28.025L296.906,11.625L301.306,11.625L301.306,-11.175L296.906,-11.175L296.906,-27.575L324.306,-27.575L324.306,-19.775C329.106,-25.908 335.106,-28.975 342.306,-28.975C347.839,-28.975 351.989,-27.241 354.756,-23.775C357.522,-20.308 358.906,-15.541 358.906,-9.475L358.906,11.625L363.306,11.625Z" style="fill:rgb(8,59,181);fill-rule:nonzero;"/>
            <path d="M396.306,29.425C386.839,29.425 379.439,26.942 374.106,21.975C368.772,17.009 366.106,9.759 366.106,0.225C366.106,-9.308 368.772,-16.558 374.106,-21.525C379.439,-26.491 386.839,-28.975 396.306,-28.975C405.906,-28.975 413.339,-26.458 418.606,-21.425C423.872,-16.391 426.506,-9.175 426.506,0.225C426.506,9.759 423.839,17.009 418.506,21.975C413.172,26.942 405.772,29.425 396.306,29.425ZM396.306,11.625C398.239,11.625 399.689,11.109 400.656,10.075C401.622,9.042 402.106,7.425 402.106,5.225L402.106,-4.775C402.106,-6.975 401.622,-8.591 400.656,-9.625C399.689,-10.658 398.239,-11.175 396.306,-11.175C394.372,-11.175 392.922,-10.658 391.956,-9.625C390.989,-8.591 390.506,-6.975 390.506,-4.775L390.506,5.225C390.506,7.425 390.989,9.042 391.956,10.075C392.922,11.109 394.372,11.625 396.306,11.625Z" style="fill:rgb(8,59,181);fill-rule:nonzero;"/>
            <path d="M454.406,29.425C447.339,29.425 442.022,27.709 438.456,24.275C434.889,20.842 433.106,15.059 433.106,6.925L433.106,-11.175L428.706,-11.175L428.706,-27.575C431.239,-27.575 433.139,-28.225 434.406,-29.525C435.672,-30.825 436.306,-32.608 436.306,-34.875L436.306,-39.375L457.506,-39.375L457.506,-27.575L471.006,-27.575L471.006,-11.175L457.506,-11.175L457.506,5.225C457.506,7.425 457.989,9.042 458.956,10.075C459.922,11.109 461.372,11.625 463.306,11.625C465.839,11.625 468.606,11.325 471.606,10.725L471.606,26.425C469.739,27.159 467.222,27.842 464.056,28.475C460.889,29.109 457.672,29.425 454.406,29.425Z" style="fill:rgb(8,59,181);fill-rule:nonzero;"/>
            <path d="M504.606,29.425C495.139,29.425 487.739,26.942 482.406,21.975C477.072,17.009 474.406,9.759 474.406,0.225C474.406,-9.308 477.072,-16.558 482.406,-21.525C487.739,-26.491 495.139,-28.975 504.606,-28.975C514.006,-28.975 520.789,-26.525 524.956,-21.625C529.122,-16.725 531.206,-10.641 531.206,-3.375L531.206,3.825L498.806,3.825L498.806,4.425C498.806,6.892 499.539,8.709 501.006,9.875C502.472,11.042 504.906,11.625 508.306,11.625C512.372,11.625 516.239,11.325 519.906,10.725C523.572,10.125 526.772,9.359 529.506,8.425L529.506,24.425C527.172,25.692 523.756,26.842 519.256,27.875C514.756,28.909 509.872,29.425 504.606,29.425ZM510.406,-7.175L510.406,-8.375C510.406,-10.641 509.922,-12.275 508.956,-13.275C507.989,-14.275 506.539,-14.775 504.606,-14.775C502.672,-14.775 501.222,-14.258 500.256,-13.225C499.289,-12.191 498.806,-10.575 498.806,-8.375L498.806,-7.175L510.406,-7.175Z" style="fill:rgb(8,59,181);fill-rule:nonzero;"/>
            <path d="M558.506,29.425C550.106,29.425 542.006,28.092 534.206,25.425L534.206,10.625L550.406,10.625L550.406,11.625C550.406,14.825 552.439,16.425 556.506,16.425C560.106,16.425 561.906,15.192 561.906,12.725C561.906,11.392 561.389,10.392 560.356,9.725C559.322,9.059 557.506,8.492 554.906,8.025L549.906,7.125C539.439,5.259 534.206,-0.675 534.206,-10.675C534.206,-16.475 536.406,-20.975 540.806,-24.175C545.206,-27.375 551.139,-28.975 558.606,-28.975C566.939,-28.975 573.972,-27.575 579.706,-24.775L579.706,-10.875L564.506,-10.875L564.506,-11.875C564.506,-13.208 564.056,-14.225 563.156,-14.925C562.256,-15.625 560.939,-15.975 559.206,-15.975C555.872,-15.975 554.206,-14.908 554.206,-12.775C554.206,-11.641 554.672,-10.775 555.606,-10.175C556.539,-9.575 558.239,-9.008 560.706,-8.475L566.406,-7.375C572.339,-6.241 576.572,-4.141 579.106,-1.075C581.639,1.992 582.906,5.925 582.906,10.725C582.906,16.792 580.789,21.425 576.556,24.625C572.322,27.825 566.306,29.425 558.506,29.425Z" style="fill:rgb(8,59,181);fill-rule:nonzero;"/>
        </g>
        <g id="icon">
            <g transform="matrix(2.62074,0,0,2.62074,-72.807,-5.09868)">
                <path d="M46.518,10.434L37.339,10.434C36.556,10.434 35.92,11.07 35.92,11.854L35.92,30.195C35.92,30.978 36.556,31.614 37.339,31.614L50.275,31.614C51.058,31.614 51.695,30.978 51.695,30.195L51.695,15.611L46.518,10.434Z" style="fill:rgb(8,59,181);"/>
                <g transform="matrix(-1,1.22465e-16,-1.22465e-16,-1,98.2124,26.0448)">
                    <path d="M46.518,10.434L51.695,15.611L51.695,11.854C51.695,11.07 51.058,10.434 50.275,10.434L46.518,10.434Z" style="fill:rgb(48,106,246);"/>
                </g>
            </g>
            <g transform="matrix(1.06072,0,0,0.5,9.64795,53.6634)">
                <path d="M43,23.5C43,21.568 42.261,20 41.35,20L19.65,20C18.739,20 18,21.568 18,23.5C18,25.432 18.739,27 19.65,27L41.35,27C42.261,27 43,25.432 43,23.5Z" style="fill:rgb(243,244,246);"/>
            </g>
            <g transform="matrix(1.06072,0,0,0.5,9.64795,45.6634)">
                <path d="M43,23.5C43,21.568 42.261,20 41.35,20L19.65,20C18.739,20 18,21.568 18,23.5C18,25.432 18.739,27 19.65,27L41.35,27C42.261,27 43,25.432 43,23.5Z" style="fill:rgb(243,244,246);"/>
            </g>
            <g transform="matrix(1.06072,0,0,0.5,9.64795,36.6634)">
                <path d="M43,23.5C43,21.568 42.261,20 41.35,20L19.65,20C18.739,20 18,21.568 18,23.5C18,25.432 18.739,27 19.65,27L41.35,27C42.261,27 43,25.432 43,23.5Z" style="fill:rgb(243,244,246);"/>
            </g>
            <g transform="matrix(1.43792,0,0,1.32277,26.1809,36.866)">
                <path d="M15.99,19.402L15.377,19.402C14.522,19.402 13.829,20.095 13.829,20.95L13.829,30.753C13.829,31.608 14.522,32.301 15.377,32.301L29.548,32.301C30.402,32.301 31.096,31.608 31.096,30.753L31.096,20.95C31.096,20.095 30.402,19.402 29.548,19.402L28.985,19.402L28.985,16.425C28.985,14.702 28.301,13.05 27.083,11.832C25.864,10.614 24.212,9.929 22.489,9.929C22.488,9.929 22.487,9.929 22.486,9.929C20.763,9.929 19.111,10.614 17.892,11.832C16.674,13.05 15.99,14.702 15.99,16.425L15.99,19.402ZM21.356,26.262C20.749,25.889 20.344,25.219 20.344,24.455C20.344,23.286 21.293,22.337 22.462,22.337C23.631,22.337 24.581,23.286 24.581,24.455C24.581,25.219 24.175,25.889 23.568,26.262L23.895,28.953C23.912,29.093 23.869,29.233 23.775,29.338C23.682,29.443 23.548,29.504 23.407,29.504C22.869,29.504 22.056,29.504 21.517,29.504C21.377,29.504 21.243,29.443 21.149,29.338C21.056,29.233 21.012,29.093 21.029,28.953L21.356,26.262ZM26.58,19.402L26.58,16.52C26.58,15.43 26.147,14.384 25.376,13.614C24.605,12.843 23.56,12.41 22.47,12.41C22.47,12.41 22.47,12.41 22.47,12.41C21.38,12.41 20.334,12.843 19.563,13.614C18.793,14.384 18.36,15.43 18.36,16.52L18.36,19.402L26.58,19.402Z" style="fill:rgb(255,200,50);"/>
            </g>
        </g>
    </g>
</svg>
